<svg fill="none" height="24" viewBox="0 0 24 24" width="24" xmlns="http://www.w3.org/2000/svg"><g stroke="#2a353d" stroke-width="1.5"><path d="m7.99805 16h3.99995m-3.99995-5h7.99995" stroke-linecap="round"/><path d="m7.5 3.5c-1.5558.04667-2.48339.21984-3.12523.86227-.87868.8795-.87868 2.29503-.87868 5.12609v6.50604c0 2.8311 0 4.2466.87868 5.1261s2.2929.8795 5.12132.8795h5.00001c2.8284 0 4.2426 0 5.1213-.8795s.8787-2.295.8787-5.1261v-6.50604c0-2.83106 0-4.24659-.8787-5.12608-.6418-.64244-1.5694-.81561-3.1252-.86228"/><path d="m7.49609 3.75c0-.9665.78351-1.75 1.75-1.75h5.50001c.9665 0 1.75.7835 1.75 1.75s-.7835 1.75-1.75 1.75h-5.50001c-.96649 0-1.75-.7835-1.75-1.75z" stroke-linejoin="round"/></g></svg>